<svg xmlns="http://www.w3.org/2000/svg" width="618" height="558" viewBox="0 0 618 558" role="img" aria-labelledby="title desc">
<title id="title">NCU vs GCoM stall reason summary for gcom_h100</title>
<desc id="desc">Grouped horizontal bar chart comparing average stall reason percentages across probes where both NCU and GCoM values are available.</desc>
<rect width="100%" height="100%" fill="white"/>
<text x="20" y="28" font-family="Arial, sans-serif" font-size="18" font-weight="700" fill="#111827">NCU vs GCoM Stall Reasons</text>
<text x="20" y="50" font-family="Arial, sans-serif" font-size="12" fill="#6b7280">Average percentage across probes with both values</text>
<rect x="170" y="20" width="12" height="12" fill="#2563eb"/>
<text x="188" y="31" font-family="Arial, sans-serif" font-size="12" fill="#111827">NCU</text>
<rect x="238" y="20" width="12" height="12" fill="#dc2626"/>
<text x="256" y="31" font-family="Arial, sans-serif" font-size="12" fill="#111827">GCoM</text>
<line x1="170.0" y1="62" x2="170.0" y2="518" stroke="#e5e7eb" stroke-width="1"/>
<text x="170.0" y="540" text-anchor="middle" font-family="Arial, sans-serif" font-size="11" fill="#6b7280">0%</text>
<line x1="275.0" y1="62" x2="275.0" y2="518" stroke="#e5e7eb" stroke-width="1"/>
<text x="275.0" y="540" text-anchor="middle" font-family="Arial, sans-serif" font-size="11" fill="#6b7280">25%</text>
<line x1="380.0" y1="62" x2="380.0" y2="518" stroke="#e5e7eb" stroke-width="1"/>
<text x="380.0" y="540" text-anchor="middle" font-family="Arial, sans-serif" font-size="11" fill="#6b7280">50%</text>
<line x1="485.0" y1="62" x2="485.0" y2="518" stroke="#e5e7eb" stroke-width="1"/>
<text x="485.0" y="540" text-anchor="middle" font-family="Arial, sans-serif" font-size="11" fill="#6b7280">75%</text>
<line x1="590.0" y1="62" x2="590.0" y2="518" stroke="#e5e7eb" stroke-width="1"/>
<text x="590.0" y="540" text-anchor="middle" font-family="Arial, sans-serif" font-size="11" fill="#6b7280">100%</text>
<text x="160" y="88" text-anchor="end" font-family="Arial, sans-serif" font-size="12" fill="#111827">selected</text>
<rect x="170" y="75" width="4.2" height="9" rx="2" fill="#2563eb"/>
<rect x="170" y="86" width="73.8" height="9" rx="2" fill="#dc2626"/>
<text x="178.2" y="83" font-family="Arial, sans-serif" font-size="10" fill="#6b7280">1.0</text>
<text x="247.8" y="94" font-family="Arial, sans-serif" font-size="10" fill="#6b7280">17.6</text>
<text x="612" y="88" text-anchor="end" font-family="Arial, sans-serif" font-size="10" fill="#6b7280">n=5</text>
<text x="160" y="114" text-anchor="end" font-family="Arial, sans-serif" font-size="12" fill="#111827">not_selected</text>
<rect x="170" y="101" width="0.0" height="9" rx="2" fill="#2563eb"/>
<rect x="170" y="112" width="0.0" height="9" rx="2" fill="#dc2626"/>
<text x="174.0" y="109" font-family="Arial, sans-serif" font-size="10" fill="#6b7280">0.0</text>
<text x="174.0" y="120" font-family="Arial, sans-serif" font-size="10" fill="#6b7280">0.0</text>
<text x="612" y="114" text-anchor="end" font-family="Arial, sans-serif" font-size="10" fill="#6b7280">n=5</text>
<text x="160" y="140" text-anchor="end" font-family="Arial, sans-serif" font-size="12" fill="#111827">dispatch_stall</text>
<rect x="170" y="127" width="0.1" height="9" rx="2" fill="#2563eb"/>
<rect x="170" y="138" width="3.6" height="9" rx="2" fill="#dc2626"/>
<text x="174.1" y="135" font-family="Arial, sans-serif" font-size="10" fill="#6b7280">0.0</text>
<text x="177.6" y="146" font-family="Arial, sans-serif" font-size="10" fill="#6b7280">0.8</text>
<text x="612" y="140" text-anchor="end" font-family="Arial, sans-serif" font-size="10" fill="#6b7280">n=5</text>
<text x="160" y="166" text-anchor="end" font-family="Arial, sans-serif" font-size="12" fill="#111827">long_scoreboard</text>
<rect x="170" y="153" width="69.2" height="9" rx="2" fill="#2563eb"/>
<rect x="170" y="164" width="0.0" height="9" rx="2" fill="#dc2626"/>
<text x="243.2" y="161" font-family="Arial, sans-serif" font-size="10" fill="#6b7280">16.5</text>
<text x="174.0" y="172" font-family="Arial, sans-serif" font-size="10" fill="#6b7280">0.0</text>
<text x="612" y="166" text-anchor="end" font-family="Arial, sans-serif" font-size="10" fill="#6b7280">n=5</text>
<text x="160" y="192" text-anchor="end" font-family="Arial, sans-serif" font-size="12" fill="#111827">short_scoreboard</text>
<rect x="170" y="179" width="8.8" height="9" rx="2" fill="#2563eb"/>
<rect x="170" y="190" width="247.9" height="9" rx="2" fill="#dc2626"/>
<text x="182.8" y="187" font-family="Arial, sans-serif" font-size="10" fill="#6b7280">2.1</text>
<text x="421.9" y="198" font-family="Arial, sans-serif" font-size="10" fill="#6b7280">59.0</text>
<text x="612" y="192" text-anchor="end" font-family="Arial, sans-serif" font-size="10" fill="#6b7280">n=5</text>
<text x="160" y="218" text-anchor="end" font-family="Arial, sans-serif" font-size="12" fill="#111827">barrier</text>
<rect x="170" y="205" width="4.1" height="9" rx="2" fill="#2563eb"/>
<rect x="170" y="216" width="3.9" height="9" rx="2" fill="#dc2626"/>
<text x="178.1" y="213" font-family="Arial, sans-serif" font-size="10" fill="#6b7280">1.0</text>
<text x="177.9" y="224" font-family="Arial, sans-serif" font-size="10" fill="#6b7280">0.9</text>
<text x="612" y="218" text-anchor="end" font-family="Arial, sans-serif" font-size="10" fill="#6b7280">n=5</text>
<text x="160" y="244" text-anchor="end" font-family="Arial, sans-serif" font-size="12" fill="#111827">wait</text>
<rect x="170" y="231" width="206.1" height="9" rx="2" fill="#2563eb"/>
<rect x="170" y="242" width="0.0" height="9" rx="2" fill="#dc2626"/>
<text x="380.1" y="239" font-family="Arial, sans-serif" font-size="10" fill="#6b7280">49.1</text>
<text x="174.0" y="250" font-family="Arial, sans-serif" font-size="10" fill="#6b7280">0.0</text>
<text x="612" y="244" text-anchor="end" font-family="Arial, sans-serif" font-size="10" fill="#6b7280">n=5</text>
<text x="160" y="270" text-anchor="end" font-family="Arial, sans-serif" font-size="12" fill="#111827">mio_throttle</text>
<rect x="170" y="257" width="0.0" height="9" rx="2" fill="#2563eb"/>
<rect x="170" y="268" width="0.0" height="9" rx="2" fill="#dc2626"/>
<text x="174.0" y="265" font-family="Arial, sans-serif" font-size="10" fill="#6b7280">0.0</text>
<text x="174.0" y="276" font-family="Arial, sans-serif" font-size="10" fill="#6b7280">0.0</text>
<text x="612" y="270" text-anchor="end" font-family="Arial, sans-serif" font-size="10" fill="#6b7280">n=5</text>
<text x="160" y="296" text-anchor="end" font-family="Arial, sans-serif" font-size="12" fill="#111827">math_pipe_throttle</text>
<rect x="170" y="283" width="0.0" height="9" rx="2" fill="#2563eb"/>
<rect x="170" y="294" width="32.8" height="9" rx="2" fill="#dc2626"/>
<text x="174.0" y="291" font-family="Arial, sans-serif" font-size="10" fill="#6b7280">0.0</text>
<text x="206.8" y="302" font-family="Arial, sans-serif" font-size="10" fill="#6b7280">7.8</text>
<text x="612" y="296" text-anchor="end" font-family="Arial, sans-serif" font-size="10" fill="#6b7280">n=5</text>
<text x="160" y="322" text-anchor="end" font-family="Arial, sans-serif" font-size="12" fill="#111827">imc_miss</text>
<rect x="170" y="309" width="0.2" height="9" rx="2" fill="#2563eb"/>
<rect x="170" y="320" width="0.0" height="9" rx="2" fill="#dc2626"/>
<text x="174.2" y="317" font-family="Arial, sans-serif" font-size="10" fill="#6b7280">0.0</text>
<text x="174.0" y="328" font-family="Arial, sans-serif" font-size="10" fill="#6b7280">0.0</text>
<text x="612" y="322" text-anchor="end" font-family="Arial, sans-serif" font-size="10" fill="#6b7280">n=5</text>
<text x="160" y="348" text-anchor="end" font-family="Arial, sans-serif" font-size="12" fill="#111827">sleeping</text>
<rect x="170" y="335" width="0.0" height="9" rx="2" fill="#2563eb"/>
<rect x="170" y="346" width="0.0" height="9" rx="2" fill="#dc2626"/>
<text x="174.0" y="343" font-family="Arial, sans-serif" font-size="10" fill="#6b7280">0.0</text>
<text x="174.0" y="354" font-family="Arial, sans-serif" font-size="10" fill="#6b7280">0.0</text>
<text x="612" y="348" text-anchor="end" font-family="Arial, sans-serif" font-size="10" fill="#6b7280">n=5</text>
<text x="160" y="374" text-anchor="end" font-family="Arial, sans-serif" font-size="12" fill="#111827">branch_resolving</text>
<rect x="170" y="361" width="0.5" height="9" rx="2" fill="#2563eb"/>
<rect x="170" y="372" width="0.0" height="9" rx="2" fill="#dc2626"/>
<text x="174.5" y="369" font-family="Arial, sans-serif" font-size="10" fill="#6b7280">0.1</text>
<text x="174.0" y="380" font-family="Arial, sans-serif" font-size="10" fill="#6b7280">0.0</text>
<text x="612" y="374" text-anchor="end" font-family="Arial, sans-serif" font-size="10" fill="#6b7280">n=5</text>
<text x="160" y="400" text-anchor="end" font-family="Arial, sans-serif" font-size="12" fill="#111827">membar</text>
<rect x="170" y="387" width="0.0" height="9" rx="2" fill="#2563eb"/>
<rect x="170" y="398" width="0.0" height="9" rx="2" fill="#dc2626"/>
<text x="174.0" y="395" font-family="Arial, sans-serif" font-size="10" fill="#6b7280">0.0</text>
<text x="174.0" y="406" font-family="Arial, sans-serif" font-size="10" fill="#6b7280">0.0</text>
<text x="612" y="400" text-anchor="end" font-family="Arial, sans-serif" font-size="10" fill="#6b7280">n=5</text>
<text x="160" y="426" text-anchor="end" font-family="Arial, sans-serif" font-size="12" fill="#111827">drain</text>
<rect x="170" y="413" width="0.1" height="9" rx="2" fill="#2563eb"/>
<rect x="170" y="424" width="0.0" height="9" rx="2" fill="#dc2626"/>
<text x="174.1" y="421" font-family="Arial, sans-serif" font-size="10" fill="#6b7280">0.0</text>
<text x="174.0" y="432" font-family="Arial, sans-serif" font-size="10" fill="#6b7280">0.0</text>
<text x="612" y="426" text-anchor="end" font-family="Arial, sans-serif" font-size="10" fill="#6b7280">n=5</text>
<text x="160" y="452" text-anchor="end" font-family="Arial, sans-serif" font-size="12" fill="#111827">lg_throttle</text>
<rect x="170" y="439" width="0.0" height="9" rx="2" fill="#2563eb"/>
<rect x="170" y="450" width="0.0" height="9" rx="2" fill="#dc2626"/>
<text x="174.0" y="447" font-family="Arial, sans-serif" font-size="10" fill="#6b7280">0.0</text>
<text x="174.0" y="458" font-family="Arial, sans-serif" font-size="10" fill="#6b7280">0.0</text>
<text x="612" y="452" text-anchor="end" font-family="Arial, sans-serif" font-size="10" fill="#6b7280">n=5</text>
<text x="160" y="478" text-anchor="end" font-family="Arial, sans-serif" font-size="12" fill="#111827">tex_throttle</text>
<rect x="170" y="465" width="0.0" height="9" rx="2" fill="#2563eb"/>
<rect x="170" y="476" width="0.0" height="9" rx="2" fill="#dc2626"/>
<text x="174.0" y="473" font-family="Arial, sans-serif" font-size="10" fill="#6b7280">0.0</text>
<text x="174.0" y="484" font-family="Arial, sans-serif" font-size="10" fill="#6b7280">0.0</text>
<text x="612" y="478" text-anchor="end" font-family="Arial, sans-serif" font-size="10" fill="#6b7280">n=5</text>
<text x="160" y="504" text-anchor="end" font-family="Arial, sans-serif" font-size="12" fill="#111827">misc</text>
<rect x="170" y="491" width="0.0" height="9" rx="2" fill="#2563eb"/>
<rect x="170" y="502" width="0.0" height="9" rx="2" fill="#dc2626"/>
<text x="174.0" y="499" font-family="Arial, sans-serif" font-size="10" fill="#6b7280">0.0</text>
<text x="174.0" y="510" font-family="Arial, sans-serif" font-size="10" fill="#6b7280">0.0</text>
<text x="612" y="504" text-anchor="end" font-family="Arial, sans-serif" font-size="10" fill="#6b7280">n=5</text>
</svg>
